<svg xmlns="http://www.w3.org/2000/svg" viewBox="0 0 1600 1000" preserveAspectRatio="xMidYMid slice">
<rect width="1600" height="1000" fill="#4d783b"/>
<g opacity="0.5"><line x1="200" y1="0" x2="200" y2="1000" stroke="#5a8a45" stroke-width="1"/><line x1="400" y1="0" x2="400" y2="1000" stroke="#5a8a45" stroke-width="1"/><line x1="600" y1="0" x2="600" y2="1000" stroke="#5a8a45" stroke-width="1"/><line x1="800" y1="0" x2="800" y2="1000" stroke="#5a8a45" stroke-width="1"/><line x1="1000" y1="0" x2="1000" y2="1000" stroke="#5a8a45" stroke-width="1"/><line x1="1200" y1="0" x2="1200" y2="1000" stroke="#5a8a45" stroke-width="1"/><line x1="1400" y1="0" x2="1400" y2="1000" stroke="#5a8a45" stroke-width="1"/><line x1="0" y1="200" x2="1600" y2="200" stroke="#5a8a45" stroke-width="1"/><line x1="0" y1="400" x2="1600" y2="400" stroke="#5a8a45" stroke-width="1"/><line x1="0" y1="600" x2="1600" y2="600" stroke="#5a8a45" stroke-width="1"/><line x1="0" y1="800" x2="1600" y2="800" stroke="#5a8a45" stroke-width="1"/></g>
<path d="M260 900 C 620 760, 760 420, 1340 120" fill="none" stroke="#fcfcfa" stroke-width="3" stroke-dasharray="2 12" stroke-linecap="round"/><circle cx="200" cy="519" r="9" fill="#fcfcfa" opacity="0.95"/><circle cx="1083" cy="320" r="9" fill="#fcfcfa" opacity="0.95"/><circle cx="651" cy="269" r="9" fill="#fcfcfa" opacity="0.95"/><circle cx="1371" cy="509" r="7" fill="#b8cea9" opacity="0.8"/><circle cx="837" cy="315" r="9" fill="#fcfcfa" opacity="0.95"/><circle cx="329" cy="740" r="9" fill="#fcfcfa" opacity="0.95"/><circle cx="1281" cy="464" r="7" fill="#b8cea9" opacity="0.8"/><circle cx="494" cy="308" r="9" fill="#fcfcfa" opacity="0.95"/><circle cx="426" cy="366" r="9" fill="#fcfcfa" opacity="0.95"/><circle cx="324" cy="734" r="9" fill="#fcfcfa" opacity="0.95"/><circle cx="841" cy="762" r="7" fill="#b8cea9" opacity="0.8"/><circle cx="1084" cy="180" r="9" fill="#fcfcfa" opacity="0.95"/><circle cx="847" cy="220" r="9" fill="#fcfcfa" opacity="0.95"/><circle cx="1235" cy="473" r="7" fill="#b8cea9" opacity="0.8"/><circle cx="766" cy="462" r="9" fill="#fcfcfa" opacity="0.95"/><circle cx="480" cy="129" r="9" fill="#fcfcfa" opacity="0.95"/><circle cx="228" cy="875" r="9" fill="#fcfcfa" opacity="0.95"/><circle cx="1299" cy="717" r="7" fill="#b8cea9" opacity="0.8"/><circle cx="885" cy="705" r="7" fill="#b8cea9" opacity="0.8"/><circle cx="948" cy="382" r="9" fill="#fcfcfa" opacity="0.95"/><circle cx="651" cy="323" r="9" fill="#fcfcfa" opacity="0.95"/><circle cx="622" cy="607" r="9" fill="#fcfcfa" opacity="0.95"/><circle cx="637" cy="160" r="9" fill="#fcfcfa" opacity="0.95"/><circle cx="834" cy="240" r="9" fill="#fcfcfa" opacity="0.95"/><circle cx="745" cy="370" r="9" fill="#fcfcfa" opacity="0.95"/><circle cx="431" cy="169" r="9" fill="#fcfcfa" opacity="0.95"/><circle cx="1384" cy="535" r="7" fill="#b8cea9" opacity="0.8"/><circle cx="307" cy="875" r="7" fill="#b8cea9" opacity="0.8"/><circle cx="720" cy="653" r="7" fill="#b8cea9" opacity="0.8"/><circle cx="424" cy="533" r="9" fill="#fcfcfa" opacity="0.95"/><circle cx="1395" cy="264" r="7" fill="#b8cea9" opacity="0.8"/><circle cx="1021" cy="424" r="7" fill="#b8cea9" opacity="0.8"/><circle cx="727" cy="688" r="7" fill="#b8cea9" opacity="0.8"/><circle cx="414" cy="736" r="9" fill="#fcfcfa" opacity="0.95"/><circle cx="1167" cy="194" r="9" fill="#fcfcfa" opacity="0.95"/><circle cx="236" cy="222" r="9" fill="#fcfcfa" opacity="0.95"/><circle cx="965" cy="409" r="9" fill="#fcfcfa" opacity="0.95"/><circle cx="499" cy="505" r="9" fill="#fcfcfa" opacity="0.95"/><circle cx="825" cy="199" r="9" fill="#fcfcfa" opacity="0.95"/><circle cx="1380" cy="385" r="7" fill="#b8cea9" opacity="0.8"/><circle cx="1122" cy="322" r="7" fill="#b8cea9" opacity="0.8"/><circle cx="1000" cy="815" r="7" fill="#b8cea9" opacity="0.8"/><circle cx="760" cy="455" r="9" fill="#fcfcfa" opacity="0.95"/><circle cx="1306" cy="475" r="7" fill="#b8cea9" opacity="0.8"/><circle cx="1373" cy="363" r="7" fill="#b8cea9" opacity="0.8"/><circle cx="1153" cy="778" r="7" fill="#b8cea9" opacity="0.8"/><circle cx="1091" cy="544" r="7" fill="#b8cea9" opacity="0.8"/><circle cx="1192" cy="524" r="7" fill="#b8cea9" opacity="0.8"/><circle cx="569" cy="381" r="9" fill="#fcfcfa" opacity="0.95"/><circle cx="574" cy="459" r="9" fill="#fcfcfa" opacity="0.95"/><circle cx="880" cy="616" r="7" fill="#b8cea9" opacity="0.8"/><circle cx="276" cy="492" r="9" fill="#fcfcfa" opacity="0.95"/><circle cx="747" cy="127" r="9" fill="#fcfcfa" opacity="0.95"/><circle cx="1041" cy="415" r="7" fill="#b8cea9" opacity="0.8"/><circle cx="736" cy="831" r="7" fill="#b8cea9" opacity="0.8"/><circle cx="350" cy="446" r="9" fill="#fcfcfa" opacity="0.95"/><circle cx="551" cy="432" r="9" fill="#fcfcfa" opacity="0.95"/><circle cx="492" cy="398" r="9" fill="#fcfcfa" opacity="0.95"/><circle cx="1052" cy="831" r="7" fill="#b8cea9" opacity="0.8"/><circle cx="221" cy="483" r="9" fill="#fcfcfa" opacity="0.95"/><circle cx="1186" cy="525" r="7" fill="#b8cea9" opacity="0.8"/><circle cx="351" cy="424" r="9" fill="#fcfcfa" opacity="0.95"/><circle cx="355" cy="737" r="9" fill="#fcfcfa" opacity="0.95"/><circle cx="670" cy="178" r="9" fill="#fcfcfa" opacity="0.95"/><circle cx="917" cy="376" r="9" fill="#fcfcfa" opacity="0.95"/><circle cx="504" cy="414" r="9" fill="#fcfcfa" opacity="0.95"/><circle cx="577" cy="589" r="9" fill="#fcfcfa" opacity="0.95"/><circle cx="445" cy="336" r="9" fill="#fcfcfa" opacity="0.95"/><circle cx="1387" cy="269" r="7" fill="#b8cea9" opacity="0.8"/><circle cx="994" cy="511" r="7" fill="#b8cea9" opacity="0.8"/><circle cx="1141" cy="217" r="9" fill="#fcfcfa" opacity="0.95"/><circle cx="630" cy="289" r="9" fill="#fcfcfa" opacity="0.95"/><circle cx="559" cy="248" r="9" fill="#fcfcfa" opacity="0.95"/><circle cx="1348" cy="672" r="7" fill="#b8cea9" opacity="0.8"/><circle cx="907" cy="513" r="7" fill="#b8cea9" opacity="0.8"/><circle cx="787" cy="398" r="9" fill="#fcfcfa" opacity="0.95"/><circle cx="552" cy="416" r="9" fill="#fcfcfa" opacity="0.95"/><circle cx="690" cy="446" r="9" fill="#fcfcfa" opacity="0.95"/><circle cx="586" cy="388" r="9" fill="#fcfcfa" opacity="0.95"/><circle cx="330" cy="674" r="9" fill="#fcfcfa" opacity="0.95"/><circle cx="691" cy="128" r="9" fill="#fcfcfa" opacity="0.95"/><circle cx="621" cy="528" r="9" fill="#fcfcfa" opacity="0.95"/><circle cx="430" cy="781" r="7" fill="#b8cea9" opacity="0.8"/><circle cx="1295" cy="853" r="7" fill="#b8cea9" opacity="0.8"/><circle cx="1153" cy="297" r="7" fill="#b8cea9" opacity="0.8"/><circle cx="812" cy="270" r="9" fill="#fcfcfa" opacity="0.95"/><circle cx="1246" cy="737" r="7" fill="#b8cea9" opacity="0.8"/><circle cx="1382" cy="382" r="7" fill="#b8cea9" opacity="0.8"/><circle cx="954" cy="633" r="7" fill="#b8cea9" opacity="0.8"/><circle cx="1271" cy="213" r="7" fill="#b8cea9" opacity="0.8"/>
</svg>