<svg xmlns="http://www.w3.org/2000/svg" viewBox="0 0 1600 1000" preserveAspectRatio="xMidYMid slice">
<rect width="1600" height="1000" fill="#fcfcfa"/>
<g opacity="0.5"><line x1="200" y1="0" x2="200" y2="1000" stroke="#eceee8" stroke-width="1"/><line x1="400" y1="0" x2="400" y2="1000" stroke="#eceee8" stroke-width="1"/><line x1="600" y1="0" x2="600" y2="1000" stroke="#eceee8" stroke-width="1"/><line x1="800" y1="0" x2="800" y2="1000" stroke="#eceee8" stroke-width="1"/><line x1="1000" y1="0" x2="1000" y2="1000" stroke="#eceee8" stroke-width="1"/><line x1="1200" y1="0" x2="1200" y2="1000" stroke="#eceee8" stroke-width="1"/><line x1="1400" y1="0" x2="1400" y2="1000" stroke="#eceee8" stroke-width="1"/><line x1="0" y1="200" x2="1600" y2="200" stroke="#eceee8" stroke-width="1"/><line x1="0" y1="400" x2="1600" y2="400" stroke="#eceee8" stroke-width="1"/><line x1="0" y1="600" x2="1600" y2="600" stroke="#eceee8" stroke-width="1"/><line x1="0" y1="800" x2="1600" y2="800" stroke="#eceee8" stroke-width="1"/></g>
<line x1="320" y1="820" x2="1280" y2="820" stroke="#d9dcd4" stroke-width="2"/>
<line x1="320" y1="820" x2="320" y2="200" stroke="#d9dcd4" stroke-width="2"/>
<path d="M320 820 L332.6 783.5 L345.0 748.5 L357.3 715.0 L369.5 682.8 L381.6 652.0 L393.7 622.5 L405.7 594.4 L417.8 567.5 L429.8 541.8 L442.0 517.4 L454.2 494.2 L466.5 472.2 L478.9 451.2 L491.6 431.4 L504.4 412.7 L517.4 394.9 L530.7 378.2 L544.2 362.5 L558.1 347.8 L572.2 333.9 L586.7 321.0 L601.6 308.9 L616.9 297.6 L632.6 287.2 L648.8 277.5 L665.5 268.6 L682.6 260.3 L700.3 252.8 L718.6 245.9 L737.5 239.7 L757.0 234.0 L777.1 228.9 L797.9 224.4 L819.4 220.3 L841.6 216.7 L864.6 213.6 L888.3 210.9 L912.9 208.6 L938.3 206.6 L964.5 205.0 L991.6 203.6 L1019.7 202.5 L1048.6 201.7 L1078.6 201.1 L1109.5 200.6 L1141.5 200.3 L1174.5 200.1 L1208.5 200.0 L1243.7 200.0 L1280.0 200.0" fill="none" stroke="#171916" stroke-width="3"/><circle cx="320.0" cy="820.0" r="7" fill="#171916" opacity="0.3"/><circle cx="371.5" cy="677.6" r="7" fill="#171916" opacity="0.35"/><circle cx="421.8" cy="558.8" r="7" fill="#171916" opacity="0.4"/><circle cx="472.7" cy="461.6" r="7" fill="#171916" opacity="0.45"/><circle cx="526.2" cy="383.7" r="7" fill="#171916" opacity="0.5"/><circle cx="584.3" cy="323.1" r="7" fill="#171916" opacity="0.55"/><circle cx="648.8" cy="277.5" r="7" fill="#171916" opacity="0.6000000000000001"/><circle cx="721.7" cy="244.8" r="7" fill="#171916" opacity="0.65"/><circle cx="805.0" cy="223.0" r="7" fill="#171916" opacity="0.7"/><circle cx="900.5" cy="209.7" r="7" fill="#171916" opacity="0.75"/><circle cx="1010.2" cy="202.9" r="7" fill="#171916" opacity="0.8"/><circle cx="1136.1" cy="200.4" r="7" fill="#171916" opacity="0.8500000000000001"/><circle cx="1280.0" cy="200.0" r="16" fill="#5a8a45" opacity="1"/>
</svg>